<svg xmlns="http://www.w3.org/2000/svg" viewBox="0 0 880 120" font-family="system-ui, -apple-system, 'Segoe UI', Roboto, sans-serif" role="img" aria-label="A six-strand unicorn mane weaving into a single rainbow line — many rule sources merged into one.">
<rect width="880" height="120" rx="10" fill="#161b22"/>
<defs><linearGradient id="manegrad" gradientUnits="userSpaceOnUse" x1="685" y1="0" x2="850" y2="0"><stop offset="0%" stop-color="#FD63B0"/><stop offset="20%" stop-color="#8C3ED1"/><stop offset="40%" stop-color="#30A0F5"/><stop offset="60%" stop-color="#1EF361"/><stop offset="80%" stop-color="#ECFE0C"/><stop offset="100%" stop-color="#FFAD65"/></linearGradient></defs>
<line x1="685" y1="60" x2="850" y2="60" stroke="url(#manegrad)" stroke-width="3.6" stroke-linecap="round"/>
<path d="M 30,60.0 L 35,63.5 L 40,66.9 L 45,70.2 L 50,73.3 L 55,76.3 L 60,78.9 L 65,81.4 L 70,83.5 L 75,85.3 L 80,86.9 L 85,88.1 L 90,89.0 L 95,89.5 L 100,89.7 L 105,89.6 L 110,89.1 L 115,88.3 L 120,87.3 L 125,85.9 L 130,84.3 L 135,82.5 L 140,80.5 L 145,78.2 L 150,75.8 L 155,73.3 L 160,70.7 L 165,68.1 L 170,65.4 L 175,62.7 L 180,60.0 L 185,57.4 L 190,54.9 L 195,52.5 L 200,50.2 L 205,48.1 L 210,46.2 L 215,44.5 L 220,43.0 L 225,41.7 L 230,40.6 L 235,39.8 L 240,39.3 L 245,39.0 L 250,38.9 L 255,39.0 L 260,39.4 L 265,40.1 L 270,40.9 L 275,41.9 L 280,43.1 L 285,44.4 L 290,45.9 L 295,47.5 L 300,49.2 L 305,50.9 L 310,52.7 L 315,54.6 L 320,56.4 L 325,58.2 L 330,60.0 L 335,61.7 L 340,63.4 L 345,64.9 L 350,66.4 L 355,67.7 L 360,68.9 L 365,70.0 L 370,70.9 L 375,71.6 L 380,72.2 L 385,72.7 L 390,72.9 L 395,73.0 L 400,73.0 L 405,72.8 L 410,72.5 L 415,72.0 L 420,71.4 L 425,70.7 L 430,70.0 L 435,69.1 L 440,68.2 L 445,67.2 L 450,66.1 L 455,65.1 L 460,64.0 L 465,63.0 L 470,62.0 L 475,61.0 L 480,60.0 L 485,59.1 L 490,58.2 L 495,57.5 L 500,56.8 L 505,56.2 L 510,55.6 L 515,55.2 L 520,54.8 L 525,54.6 L 530,54.4 L 535,54.3 L 540,54.3 L 545,54.4 L 550,54.5 L 555,54.7 L 560,55.0 L 565,55.3 L 570,55.6 L 575,56.0 L 580,56.4 L 585,56.8 L 590,57.3 L 595,57.7 L 600,58.1 L 605,58.5 L 610,58.9 L 615,59.2 L 620,59.5 L 625,59.8 L 630,60.0 L 635,60.2 L 640,60.3 L 645,60.4 L 650,60.5 L 655,60.5 L 660,60.5 L 665,60.4 L 670,60.3 L 675,60.2 L 680,60.1 L 685,60.0" fill="none" stroke="#FD63B0" stroke-width="3.2" stroke-linecap="round" stroke-linejoin="round" opacity="0.95"/>
<path d="M 30,86.2 L 35,87.6 L 40,88.7 L 45,89.5 L 50,90.0 L 55,90.1 L 60,89.8 L 65,89.3 L 70,88.4 L 75,87.2 L 80,85.8 L 85,84.1 L 90,82.1 L 95,80.0 L 100,77.7 L 105,75.2 L 110,72.6 L 115,69.9 L 120,67.2 L 125,64.5 L 130,61.7 L 135,59.0 L 140,56.3 L 145,53.8 L 150,51.4 L 155,49.1 L 160,47.0 L 165,45.0 L 170,43.3 L 175,41.8 L 180,40.6 L 185,39.6 L 190,38.8 L 195,38.3 L 200,38.0 L 205,38.0 L 210,38.2 L 215,38.7 L 220,39.4 L 225,40.3 L 230,41.4 L 235,42.7 L 240,44.1 L 245,45.7 L 250,47.4 L 255,49.2 L 260,51.1 L 265,53.0 L 270,54.9 L 275,56.9 L 280,58.8 L 285,60.7 L 290,62.5 L 295,64.3 L 300,65.9 L 305,67.4 L 310,68.9 L 315,70.1 L 320,71.2 L 325,72.2 L 330,72.9 L 335,73.6 L 340,74.0 L 345,74.3 L 350,74.4 L 355,74.3 L 360,74.1 L 365,73.7 L 370,73.2 L 375,72.5 L 380,71.7 L 385,70.9 L 390,69.9 L 395,68.8 L 400,67.7 L 405,66.6 L 410,65.4 L 415,64.2 L 420,63.0 L 425,61.8 L 430,60.7 L 435,59.6 L 440,58.5 L 445,57.6 L 450,56.6 L 455,55.8 L 460,55.1 L 465,54.4 L 470,53.9 L 475,53.5 L 480,53.1 L 485,52.9 L 490,52.7 L 495,52.7 L 500,52.7 L 505,52.9 L 510,53.1 L 515,53.4 L 520,53.7 L 525,54.2 L 530,54.6 L 535,55.1 L 540,55.6 L 545,56.2 L 550,56.7 L 555,57.3 L 560,57.8 L 565,58.3 L 570,58.8 L 575,59.3 L 580,59.7 L 585,60.1 L 590,60.5 L 595,60.8 L 600,61.0 L 605,61.2 L 610,61.4 L 615,61.5 L 620,61.5 L 625,61.6 L 630,61.5 L 635,61.4 L 640,61.3 L 645,61.2 L 650,61.1 L 655,60.9 L 660,60.7 L 665,60.6 L 670,60.4 L 675,60.2 L 680,60.1 L 685,60.0" fill="none" stroke="#8C3ED1" stroke-width="3.2" stroke-linecap="round" stroke-linejoin="round" opacity="0.89"/>
<path d="M 30,86.8 L 35,85.3 L 40,83.5 L 45,81.5 L 50,79.3 L 55,76.9 L 60,74.4 L 65,71.7 L 70,69.0 L 75,66.2 L 80,63.5 L 85,60.7 L 90,58.0 L 95,55.3 L 100,52.8 L 105,50.4 L 110,48.1 L 115,46.0 L 120,44.1 L 125,42.4 L 130,41.0 L 135,39.8 L 140,38.8 L 145,38.1 L 150,37.7 L 155,37.5 L 160,37.5 L 165,37.8 L 170,38.4 L 175,39.1 L 180,40.1 L 185,41.3 L 190,42.7 L 195,44.2 L 200,45.9 L 205,47.7 L 210,49.5 L 215,51.5 L 220,53.5 L 225,55.5 L 230,57.5 L 235,59.5 L 240,61.5 L 245,63.3 L 250,65.1 L 255,66.8 L 260,68.4 L 265,69.9 L 270,71.1 L 275,72.3 L 280,73.2 L 285,74.0 L 290,74.6 L 295,75.1 L 300,75.3 L 305,75.4 L 310,75.3 L 315,75.0 L 320,74.6 L 325,74.0 L 330,73.2 L 335,72.4 L 340,71.4 L 345,70.4 L 350,69.2 L 355,68.0 L 360,66.8 L 365,65.5 L 370,64.2 L 375,62.9 L 380,61.6 L 385,60.3 L 390,59.1 L 395,57.9 L 400,56.8 L 405,55.8 L 410,54.9 L 415,54.1 L 420,53.3 L 425,52.7 L 430,52.2 L 435,51.8 L 440,51.6 L 445,51.4 L 450,51.3 L 455,51.4 L 460,51.5 L 465,51.8 L 470,52.1 L 475,52.5 L 480,53.0 L 485,53.5 L 490,54.1 L 495,54.7 L 500,55.3 L 505,56.0 L 510,56.7 L 515,57.4 L 520,58.0 L 525,58.7 L 530,59.3 L 535,59.9 L 540,60.4 L 545,60.9 L 550,61.3 L 555,61.7 L 560,62.1 L 565,62.3 L 570,62.5 L 575,62.7 L 580,62.8 L 585,62.8 L 590,62.8 L 595,62.8 L 600,62.7 L 605,62.6 L 610,62.4 L 615,62.2 L 620,62.0 L 625,61.8 L 630,61.6 L 635,61.3 L 640,61.1 L 645,60.9 L 650,60.7 L 655,60.5 L 660,60.4 L 665,60.2 L 670,60.1 L 675,60.1 L 680,60.0 L 685,60.0" fill="none" stroke="#30A0F5" stroke-width="3.2" stroke-linecap="round" stroke-linejoin="round" opacity="0.83"/>
<path d="M 30,65.2 L 35,62.4 L 40,59.7 L 45,57.0 L 50,54.4 L 55,51.9 L 60,49.5 L 65,47.3 L 70,45.3 L 75,43.4 L 80,41.8 L 85,40.4 L 90,39.3 L 95,38.4 L 100,37.8 L 105,37.4 L 110,37.3 L 115,37.4 L 120,37.8 L 125,38.4 L 130,39.3 L 135,40.3 L 140,41.6 L 145,43.0 L 150,44.6 L 155,46.3 L 160,48.1 L 165,50.1 L 170,52.1 L 175,54.1 L 180,56.2 L 185,58.2 L 190,60.3 L 195,62.2 L 200,64.1 L 205,66.0 L 210,67.7 L 215,69.3 L 220,70.7 L 225,72.0 L 230,73.1 L 235,74.1 L 240,74.8 L 245,75.4 L 250,75.8 L 255,76.0 L 260,76.0 L 265,75.9 L 270,75.6 L 275,75.1 L 280,74.4 L 285,73.6 L 290,72.7 L 295,71.7 L 300,70.6 L 305,69.3 L 310,68.1 L 315,66.7 L 320,65.3 L 325,63.9 L 330,62.6 L 335,61.2 L 340,59.8 L 345,58.5 L 350,57.3 L 355,56.1 L 360,55.0 L 365,54.1 L 370,53.2 L 375,52.4 L 380,51.7 L 385,51.2 L 390,50.8 L 395,50.5 L 400,50.3 L 405,50.2 L 410,50.3 L 415,50.4 L 420,50.7 L 425,51.1 L 430,51.5 L 435,52.1 L 440,52.6 L 445,53.3 L 450,54.0 L 455,54.8 L 460,55.5 L 465,56.3 L 470,57.1 L 475,57.9 L 480,58.6 L 485,59.4 L 490,60.1 L 495,60.8 L 500,61.4 L 505,61.9 L 510,62.4 L 515,62.9 L 520,63.2 L 525,63.6 L 530,63.8 L 535,64.0 L 540,64.1 L 545,64.1 L 550,64.1 L 555,64.0 L 560,63.9 L 565,63.8 L 570,63.6 L 575,63.3 L 580,63.1 L 585,62.8 L 590,62.5 L 595,62.2 L 600,61.9 L 605,61.6 L 610,61.3 L 615,61.0 L 620,60.7 L 625,60.5 L 630,60.3 L 635,60.1 L 640,60.0 L 645,59.9 L 650,59.8 L 655,59.8 L 660,59.7 L 665,59.8 L 670,59.8 L 675,59.9 L 680,59.9 L 685,60.0" fill="none" stroke="#1EF361" stroke-width="3.2" stroke-linecap="round" stroke-linejoin="round" opacity="0.77"/>
<path d="M 30,43.0 L 35,41.5 L 40,40.2 L 45,39.2 L 50,38.4 L 55,37.8 L 60,37.5 L 65,37.5 L 70,37.7 L 75,38.2 L 80,38.8 L 85,39.7 L 90,40.9 L 95,42.2 L 100,43.6 L 105,45.2 L 110,47.0 L 115,48.9 L 120,50.8 L 125,52.8 L 130,54.9 L 135,56.9 L 140,59.0 L 145,61.0 L 150,63.0 L 155,64.9 L 160,66.7 L 165,68.4 L 170,69.9 L 175,71.3 L 180,72.6 L 185,73.7 L 190,74.6 L 195,75.3 L 200,75.9 L 205,76.2 L 210,76.4 L 215,76.4 L 220,76.2 L 225,75.8 L 230,75.2 L 235,74.6 L 240,73.7 L 245,72.7 L 250,71.6 L 255,70.5 L 260,69.2 L 265,67.8 L 270,66.4 L 275,65.0 L 280,63.6 L 285,62.1 L 290,60.7 L 295,59.3 L 300,58.0 L 305,56.7 L 310,55.5 L 315,54.4 L 320,53.3 L 325,52.4 L 330,51.6 L 335,50.9 L 340,50.4 L 345,49.9 L 350,49.6 L 355,49.5 L 360,49.4 L 365,49.5 L 370,49.7 L 375,50.0 L 380,50.4 L 385,50.9 L 390,51.5 L 395,52.1 L 400,52.8 L 405,53.6 L 410,54.4 L 415,55.3 L 420,56.2 L 425,57.0 L 430,57.9 L 435,58.8 L 440,59.6 L 445,60.4 L 450,61.2 L 455,61.9 L 460,62.5 L 465,63.1 L 470,63.6 L 475,64.1 L 480,64.5 L 485,64.8 L 490,65.0 L 495,65.2 L 500,65.2 L 505,65.2 L 510,65.2 L 515,65.1 L 520,64.9 L 525,64.7 L 530,64.4 L 535,64.1 L 540,63.8 L 545,63.4 L 550,63.0 L 555,62.6 L 560,62.2 L 565,61.9 L 570,61.5 L 575,61.1 L 580,60.8 L 585,60.4 L 590,60.1 L 595,59.9 L 600,59.6 L 605,59.4 L 610,59.3 L 615,59.2 L 620,59.1 L 625,59.0 L 630,59.0 L 635,59.0 L 640,59.1 L 645,59.1 L 650,59.2 L 655,59.3 L 660,59.4 L 665,59.6 L 670,59.7 L 675,59.8 L 680,59.9 L 685,60.0" fill="none" stroke="#ECFE0C" stroke-width="3.2" stroke-linecap="round" stroke-linejoin="round" opacity="0.71"/>
<path d="M 30,38.9 L 35,39.6 L 40,40.6 L 45,41.7 L 50,43.1 L 55,44.5 L 60,46.2 L 65,47.9 L 70,49.8 L 75,51.7 L 80,53.7 L 85,55.7 L 90,57.7 L 95,59.8 L 100,61.7 L 105,63.6 L 110,65.5 L 115,67.2 L 120,68.9 L 125,70.4 L 130,71.7 L 135,72.9 L 140,73.9 L 145,74.8 L 150,75.5 L 155,76.0 L 160,76.3 L 165,76.4 L 170,76.3 L 175,76.1 L 180,75.6 L 185,75.1 L 190,74.3 L 195,73.4 L 200,72.4 L 205,71.3 L 210,70.1 L 215,68.8 L 220,67.4 L 225,66.0 L 230,64.5 L 235,63.1 L 240,61.6 L 245,60.2 L 250,58.8 L 255,57.4 L 260,56.1 L 265,54.9 L 270,53.8 L 275,52.8 L 280,51.8 L 285,51.0 L 290,50.4 L 295,49.8 L 300,49.4 L 305,49.1 L 310,49.0 L 315,48.9 L 320,49.0 L 325,49.2 L 330,49.6 L 335,50.0 L 340,50.5 L 345,51.2 L 350,51.9 L 355,52.7 L 360,53.5 L 365,54.4 L 370,55.3 L 375,56.2 L 380,57.1 L 385,58.1 L 390,59.0 L 395,59.9 L 400,60.8 L 405,61.6 L 410,62.4 L 415,63.1 L 420,63.7 L 425,64.3 L 430,64.8 L 435,65.2 L 440,65.6 L 445,65.8 L 450,66.0 L 455,66.1 L 460,66.1 L 465,66.1 L 470,66.0 L 475,65.8 L 480,65.5 L 485,65.2 L 490,64.9 L 495,64.5 L 500,64.1 L 505,63.7 L 510,63.2 L 515,62.7 L 520,62.3 L 525,61.8 L 530,61.3 L 535,60.9 L 540,60.4 L 545,60.0 L 550,59.7 L 555,59.3 L 560,59.1 L 565,58.8 L 570,58.6 L 575,58.4 L 580,58.3 L 585,58.2 L 590,58.1 L 595,58.1 L 600,58.1 L 605,58.2 L 610,58.3 L 615,58.4 L 620,58.5 L 625,58.6 L 630,58.8 L 635,58.9 L 640,59.1 L 645,59.2 L 650,59.4 L 655,59.5 L 660,59.7 L 665,59.8 L 670,59.9 L 675,59.9 L 680,60.0 L 685,60.0" fill="none" stroke="#FFAD65" stroke-width="3.2" stroke-linecap="round" stroke-linejoin="round" opacity="0.65"/>
</svg>