<svg xmlns="http://www.w3.org/2000/svg" viewBox="0 0 780 438" font-family="system-ui, -apple-system, 'Segoe UI', Roboto, sans-serif" role="img" aria-label="Output tokens generated per task, ladder vs neutral: the ladder writes about 11 times less code, 2,296 tokens across 8 tasks versus 24,689 without it.">
<defs><linearGradient id="netgrad" gradientUnits="userSpaceOnUse" x1="172" y1="0" x2="690" y2="0"><stop offset="0%" stop-color="#FD63B0"/><stop offset="20%" stop-color="#8C3ED1"/><stop offset="40%" stop-color="#30A0F5"/><stop offset="60%" stop-color="#1EF361"/><stop offset="80%" stop-color="#ECFE0C"/><stop offset="100%" stop-color="#FFAD65"/></linearGradient></defs>
<rect width="780" height="438" rx="10" fill="#161b22"/>
<text x="40" y="36" font-size="19" font-weight="600" fill="#e6edf3">Code written vs code skipped — 8 tasks, same model</text>
<text x="40" y="57" font-size="13" fill="#8b949e">gradient = tokens generated with the ladder · gray = extra tokens the neutral run spent · lower total is better ↓</text>
<text x="160" y="107.0" font-size="13" text-anchor="end" fill="#c9d1d9">store-theme</text>
<rect x="172" y="92" width="314.8" height="20" rx="4" fill="#6e7681"/>
<rect x="172" y="92" width="26.7" height="20" rx="4" fill="url(#netgrad)"/>
<text x="494.8" y="107.0" font-size="12" fill="#8b949e" font-variant-numeric="tabular-nums">3,099</text>
<text x="160" y="140.0" font-size="13" text-anchor="end" fill="#c9d1d9">debounce-search</text>
<rect x="172" y="125" width="84.3" height="20" rx="4" fill="#6e7681"/>
<rect x="172" y="125" width="3.8" height="20" rx="4" fill="url(#netgrad)"/>
<text x="264.3" y="140.0" font-size="12" fill="#8b949e" font-variant-numeric="tabular-nums">830</text>
<text x="160" y="173.0" font-size="13" text-anchor="end" fill="#c9d1d9">validate-upload</text>
<rect x="172" y="158" width="409.4" height="20" rx="4" fill="#6e7681"/>
<rect x="172" y="158" width="138.7" height="20" rx="4" fill="url(#netgrad)"/>
<text x="589.4" y="173.0" font-size="12" fill="#8b949e" font-variant-numeric="tabular-nums">4,031</text>
<text x="160" y="206.0" font-size="13" text-anchor="end" fill="#c9d1d9">retry-api</text>
<rect x="172" y="191" width="338.2" height="20" rx="4" fill="#6e7681"/>
<rect x="172" y="191" width="19.4" height="20" rx="4" fill="url(#netgrad)"/>
<text x="518.2" y="206.0" font-size="12" fill="#8b949e" font-variant-numeric="tabular-nums">3,330</text>
<text x="160" y="239.0" font-size="13" text-anchor="end" fill="#c9d1d9">relative-time</text>
<rect x="172" y="224" width="508.2" height="20" rx="4" fill="#6e7681"/>
<rect x="172" y="224" width="7.0" height="20" rx="4" fill="url(#netgrad)"/>
<text x="688.2" y="239.0" font-size="12" fill="#8b949e" font-variant-numeric="tabular-nums">5,004</text>
<text x="160" y="272.0" font-size="13" text-anchor="end" fill="#c9d1d9">feature-flag</text>
<rect x="172" y="257" width="352.8" height="20" rx="4" fill="#6e7681"/>
<rect x="172" y="257" width="13.5" height="20" rx="4" fill="url(#netgrad)"/>
<text x="532.8" y="272.0" font-size="12" fill="#8b949e" font-variant-numeric="tabular-nums">3,474</text>
<text x="160" y="305.0" font-size="13" text-anchor="end" fill="#c9d1d9">cache-user</text>
<rect x="172" y="290" width="303.0" height="20" rx="4" fill="#6e7681"/>
<rect x="172" y="290" width="21.8" height="20" rx="4" fill="url(#netgrad)"/>
<text x="483.0" y="305.0" font-size="12" fill="#8b949e" font-variant-numeric="tabular-nums">2,983</text>
<text x="160" y="338.0" font-size="13" text-anchor="end" fill="#c9d1d9">parse-tags</text>
<rect x="172" y="323" width="196.8" height="20" rx="4" fill="#6e7681"/>
<rect x="172" y="323" width="2.5" height="20" rx="4" fill="url(#netgrad)"/>
<text x="376.8" y="338.0" font-size="12" fill="#8b949e" font-variant-numeric="tabular-nums">1,938</text>
<rect x="172" y="364" width="12" height="12" rx="2" fill="url(#netgrad)"/>
<text x="190" y="374" font-size="13" fill="#c9d1d9">written with the ladder</text>
<rect x="360" y="364" width="12" height="12" rx="2" fill="#6e7681"/>
<text x="378" y="374" font-size="13" fill="#c9d1d9">over-build the ladder refused</text>
<text x="40" y="404" font-size="15" font-weight="600" fill="#e6edf3" font-variant-numeric="tabular-nums">Total: <tspan fill="#A468E0">2,296</tspan> written vs 24,689 — <tspan fill="#1EF361">22,393 output tokens saved (−91%)</tspan></text>
</svg>